<svg xmlns="http://www.w3.org/2000/svg" width="29.182" height="29.122" viewBox="0 0 29.182 29.122">
  <g id="Group_2992" data-name="Group 2992" transform="translate(152.587 -502.205)">
    <path id="Path_9220" data-name="Path 9220" d="M-123.405,515.827v1.709c-.047,0-.094.013-.141.013q-4.715,0-9.43,0a1.759,1.759,0,0,1-.209-.024v-1.691h4.133v-4.39c-.129.072-.229.124-.326.181q-4.72,2.725-9.441,5.446a.46.46,0,0,0-.274.46q.012,5.484.006,10.968v.358l7.635-4.408-.02-.07h-1.714v-1.7h9.441c.114,0,.227-.009.341-.014v1.709c-1.395,0-2.789,0-4.184.022a1.37,1.37,0,0,0-.637.172q-5.708,3.28-11.405,6.58a2.689,2.689,0,0,0-.242.178h-.114c-.1-.067-.2-.14-.306-.2q-6-3.465-12-6.923a.5.5,0,0,1-.289-.51q.012-6.965,0-13.93a.481.481,0,0,1,.285-.484q6.067-3.491,12.125-7a.4.4,0,0,1,.459,0q6.07,3.515,12.149,7.013a.44.44,0,0,1,.257.444c-.009,1.918-.005,3.836-.005,5.754v.339Zm-19.876-.026v6.783c-.132-.069-.222-.112-.309-.162-1.52-.877-3.038-1.759-4.562-2.628a.438.438,0,0,1-.258-.443c.009-2.07,0-4.141.01-6.211a.433.433,0,0,0-.251-.448c-.657-.36-1.3-.745-1.95-1.119-.078-.045-.161-.083-.26-.133,0,.077-.009.123-.009.169q0,5.613-.005,11.225a.333.333,0,0,0,.2.328q4.821,2.777,9.639,5.56c.067.038.14.065.237.109v-5.859c0-1.823,0-3.647-.006-5.47a.447.447,0,0,0-.129-.334C-141.686,516.712-142.454,516.278-143.281,515.8Zm5.8-10.253c-.763-.441-1.5-.857-2.219-1.289a.414.414,0,0,0-.486,0q-3.948,2.292-7.9,4.569l-1.921,1.112c.765.441,1.5.856,2.222,1.287a.413.413,0,0,0,.486.006q4.748-2.754,9.505-5.494C-137.7,505.683-137.607,505.624-137.481,505.549Zm7.6,4.384c-.739-.427-1.457-.83-2.161-1.254a.494.494,0,0,0-.586-.009q-4.377,2.545-8.767,5.068c-.326.188-.651.379-1.01.588.744.43,1.462.834,2.166,1.26a.5.5,0,0,0,.587.008q4.735-2.751,9.481-5.482C-130.086,510.062-130,510-129.886,509.933Zm-15.945,2.418c.521.3,1,.567,1.465.854a.408.408,0,0,0,.485,0q4.773-2.768,9.553-5.522c.078-.045.152-.1.257-.163-.5-.292-.982-.559-1.449-.846a.407.407,0,0,0-.485,0q-2.838,1.653-5.686,3.29Zm.845,7.29v-.371q0-1.737,0-3.473c0-.322.094-.7-.046-.949s-.519-.351-.8-.515-.548-.318-.827-.48a.467.467,0,0,0-.036.1c0,1.518,0,3.037,0,4.555a.279.279,0,0,0,.1.207C-146.077,519.016-145.559,519.31-144.986,519.641Z" transform="translate(0 0)" fill="#2a3349"/>
    <path id="Path_9221" data-name="Path 9221" d="M112.037,727.768c-.085,0-.17.014-.255.014h-9.527v-1.71h9.413c.123,0,.246-.009.369-.014Z" transform="translate(-235.442 -206.812)" fill="#2a3349"/>
  </g>
</svg>
