<svg xmlns="http://www.w3.org/2000/svg" xmlns:xlink="http://www.w3.org/1999/xlink" width="28" height="28" viewBox="0 0 28 28">
  <defs>
    <clipPath id="clip-path">
      <rect id="Rectangle_553" data-name="Rectangle 553" width="28" height="28" transform="translate(-0.286)" fill="#fff" stroke="#707070" stroke-width="1"/>
    </clipPath>
  </defs>
  <g id="chat" transform="translate(0.286)" clip-path="url(#clip-path)">
    <g id="messages-alert-svgrepo-com">
      <rect id="view-box" width="28" height="28" transform="translate(-0.286)" fill="none"/>
      <path id="Shape" d="M12.543,22.75a11.27,11.27,0,0,1-4.977-1.145A11.537,11.537,0,0,1,1.877,22.75c-.325,0-.674-.007-1.035-.021a.863.863,0,0,1-.758-.5.861.861,0,0,1,.1-.9A13.056,13.056,0,0,0,2.6,16.9,11.38,11.38,0,0,1,14.8.224a6.391,6.391,0,0,0-.789,1.633A9.627,9.627,0,0,0,4.279,16.314a.875.875,0,0,1,.107.624,11.887,11.887,0,0,1-1.82,4.051,8.4,8.4,0,0,0,4.452-1.1.87.87,0,0,1,.5-.159.881.881,0,0,1,.421.109A9.63,9.63,0,0,0,22.059,9.917a6.39,6.39,0,0,0,1.633-.789A11.381,11.381,0,0,1,12.543,22.75Zm3.5-8.167H7.876a.875.875,0,1,1,0-1.75h8.167a.875.875,0,0,1,0,1.75ZM13.71,9.917H7.876a.875.875,0,1,1,0-1.75H13.71a.875.875,0,1,1,0,1.75Z" transform="translate(1.457 2.625)" fill="#2a3349"/>
    </g>
  </g>
</svg>
