<svg xmlns="http://www.w3.org/2000/svg" width="39.38" height="39.38" viewBox="0 0 39.38 39.38">
  <g id="Icon_ionic-ios-close-circle-outline" data-name="Icon ionic-ios-close-circle-outline" transform="translate(-3.375 -3.375)">
    <path id="Path_5" data-name="Path 5" d="M27.082,24.944l-4.989-4.989,4.989-4.989a1.513,1.513,0,0,0-2.139-2.139l-4.989,4.989-4.989-4.989a1.513,1.513,0,0,0-2.139,2.139l4.989,4.989-4.989,4.989a1.463,1.463,0,0,0,0,2.139,1.5,1.5,0,0,0,2.139,0l4.989-4.989,4.989,4.989a1.52,1.52,0,0,0,2.139,0A1.5,1.5,0,0,0,27.082,24.944Z" transform="translate(3.112 3.11)" fill="#666b78"/>
    <path id="Path_6" data-name="Path 6" d="M23.065,6.026a17.033,17.033,0,1,1-12.051,4.989A16.927,16.927,0,0,1,23.065,6.026m0-2.651a19.69,19.69,0,1,0,19.69,19.69,19.687,19.687,0,0,0-19.69-19.69Z" transform="translate(0 0)" fill="#666b78"/>
  </g>
</svg>
