<svg xmlns="http://www.w3.org/2000/svg" width="38" height="38" viewBox="0 0 38 38">
  <g id="Group_3017" data-name="Group 3017" transform="translate(22 331)">
    <path id="Path_9260" data-name="Path 9260" d="M16-313.113v2.227a2.533,2.533,0,0,0-.063.32,17.9,17.9,0,0,1-2.166,7.485A18.73,18.73,0,0,1,.31-293.3c-.725.139-1.464.2-2.2.3H-4.113a2.011,2.011,0,0,0-.287-.061,17.89,17.89,0,0,1-7.522-2.17A18.728,18.728,0,0,1-21.7-308.693c-.138-.724-.2-1.462-.3-2.193v-2.227a2.531,2.531,0,0,0,.063-.32,17.9,17.9,0,0,1,2.166-7.485A18.73,18.73,0,0,1-6.31-330.7c.725-.139,1.464-.2,2.2-.3h2.227a2.011,2.011,0,0,0,.287.061,17.89,17.89,0,0,1,7.522,2.17A18.729,18.729,0,0,1,15.7-315.307C15.839-314.583,15.9-313.845,16-313.113ZM-3-295.969a16.037,16.037,0,0,0,16.028-16.016A16.04,16.04,0,0,0-3-328.031a16.037,16.037,0,0,0-16.027,16.016A16.04,16.04,0,0,0-3-295.969Z" fill="#34b506"/>
    <path id="Path_9261" data-name="Path 9261" d="M121.264-152.6a2.3,2.3,0,0,1,.254-.391q4.2-4.215,8.415-8.423a1.645,1.645,0,0,1,1.2-.585,1.421,1.421,0,0,1,1.324.8,1.393,1.393,0,0,1-.113,1.538,3.024,3.024,0,0,1-.344.387q-4.785,4.788-9.572,9.573a1.533,1.533,0,0,1-2.473,0q-2.23-2.229-4.458-4.46a1.49,1.49,0,0,1-.363-1.82,1.489,1.489,0,0,1,2.441-.294c1.11,1.093,2.2,2.2,3.306,3.3C120.969-152.876,121.068-152.786,121.264-152.6Z" transform="translate(-126.793 -156.459)" fill="#34b506"/>
  </g>
</svg>
