<svg xmlns="http://www.w3.org/2000/svg" width="35.129" height="24.701" viewBox="0 0 35.129 24.701">
  <path id="Path_2" data-name="Path 2" d="M118.173,157.4a7.11,7.11,0,0,1-.338.963,3.014,3.014,0,0,1-2.659,1.709c-.091.006-.183,0-.274,0q-14.317,0-28.634,0a3.076,3.076,0,0,1-3.11-2.3,3.527,3.527,0,0,1-.109-.88q-.009-9.173,0-18.347a3.078,3.078,0,0,1,3.188-3.174q14.369,0,28.737,0a3.069,3.069,0,0,1,3.143,2.516,1.284,1.284,0,0,0,.059.159Zm-31.54-19.949c.116.121.185.2.257.268q6.356,6.376,12.7,12.762a1.366,1.366,0,0,0,2.029.006q6.328-6.4,12.7-12.762c.077-.077.147-.16.252-.274Zm-.014,20.536H114.6l-8.829-8.751c-.067.064-.158.147-.245.234-.856.858-1.708,1.72-2.568,2.575a3.246,3.246,0,0,1-4.7,0c-.519-.516-1.032-1.038-1.549-1.556-.426-.427-.854-.853-1.261-1.26ZM85.123,139v17.459l8.811-8.729Zm30.962,17.471V139.041l-8.8,8.711Z" transform="translate(-83.044 -135.38)" fill="#0b78f9"/>
</svg>
