<svg xmlns="http://www.w3.org/2000/svg" width="37.596" height="36.948" viewBox="0 0 37.596 36.948">
  <g id="Group_3015" data-name="Group 3015" transform="translate(-428 -132.958)">
    <path id="Path_9254" data-name="Path 9254" d="M465.6,150.951l-.1.235a1.483,1.483,0,0,1-1.623.919,1.462,1.462,0,0,1-1.213-1.451c-.009-1.395,0-2.789,0-4.184q0-3.725,0-7.451a2.944,2.944,0,0,0-3.13-3.121q-12.736,0-25.473,0a2.943,2.943,0,0,0-3.118,3.133q0,9.4,0,18.793a2.942,2.942,0,0,0,3.1,3.113c2.288,0,4.576.013,6.864,0a1.822,1.822,0,0,1,1.575.756c1.28,1.654,2.584,3.289,3.881,4.931.368.465.494.463.86,0,1.282-1.637,2.573-3.267,3.84-4.916a1.814,1.814,0,0,1,1.567-.769c2.3.019,4.6.008,6.9.007a2.939,2.939,0,0,0,3.134-2.972,1.469,1.469,0,0,1,2.839-.494l.1.235v.955a.56.56,0,0,0-.058.129,5.86,5.86,0,0,1-6,5.084c-2.019,0-4.037.007-6.056-.007a.711.711,0,0,0-.635.317c-1.138,1.47-2.275,2.941-3.438,4.391a3.25,3.25,0,0,1-5.265-.03q-1.744-2.2-3.473-4.41a.614.614,0,0,0-.55-.263c-2.1.007-4.209.013-6.313,0a5.862,5.862,0,0,1-5.593-4.326c-.079-.292-.141-.589-.211-.883V138.174a1.266,1.266,0,0,0,.066-.2,5.857,5.857,0,0,1,5.775-5.007q12.958-.014,25.915,0a5.842,5.842,0,0,1,5.637,4.363c.075.28.136.565.2.847Z" fill="#ff3434"/>
    <path id="Path_9255" data-name="Path 9255" d="M666.928,315.434c0,1.284,0,2.567,0,3.851a1.473,1.473,0,1,1-2.936-.017q0-3.833,0-7.665a1.473,1.473,0,1,1,2.936.017Q666.931,313.527,666.928,315.434Z" transform="translate(-218.661 -164.053)" fill="#ff3434"/>
    <path id="Path_9256" data-name="Path 9256" d="M665.478,241.012a1.468,1.468,0,1,1-1.462,1.472A1.47,1.47,0,0,1,665.478,241.012Z" transform="translate(-218.685 -100.12)" fill="#ff3434"/>
  </g>
</svg>
