<svg xmlns="http://www.w3.org/2000/svg" width="29.25" height="29.26" viewBox="0 0 29.25 29.26">
  <g id="Group_2999" data-name="Group 2999" transform="translate(274.968 -1015.683)">
    <path id="Path_9233" data-name="Path 9233" d="M-265.6,1044.943c-1.624,0-3.272-.007-4.9-.021a4.511,4.511,0,0,1-4.467-4.59c0-5.411,0-11.134,0-17.5,0-.238,0-.476,0-.714-.005-.818-.011-1.664.059-2.484a4.476,4.476,0,0,1,3.833-3.9,1.571,1.571,0,0,0,.2-.042l.048-.012h10.509c.124.03.249.057.37.083a5.974,5.974,0,0,1,.807.213,4.518,4.518,0,0,1,2.952,4.171c.023.983.014,1.957,0,2.951a1.168,1.168,0,0,1-1.159,1.207,1.156,1.156,0,0,1-1.157-1.215c0-.528,0-1.065,0-1.585q0-.571,0-1.142a2.213,2.213,0,0,0-2.354-2.358l-4.715,0-4.715,0a2.209,2.209,0,0,0-2.359,2.353q0,9.952,0,19.9a2.218,2.218,0,0,0,2.34,2.343l4.7,0,4.761,0a2.224,2.224,0,0,0,2.344-2.339c0-.429,0-.859,0-1.288,0-.661,0-1.346.006-2.017a1.131,1.131,0,0,1,.846-1.073,1.193,1.193,0,0,1,.3-.039,1.109,1.109,0,0,1,.968.538,1.242,1.242,0,0,1,.183.566c0,.277.007.554.011.831.016,1,.032,2.031-.042,3.035a4.417,4.417,0,0,1-4.41,4.1C-262.28,1044.935-263.95,1044.943-265.6,1044.943Z" fill="#fff"/>
    <path id="Path_9234" data-name="Path 9234" d="M-114.905,1137.34a1.249,1.249,0,0,1-.407-.073,1.12,1.12,0,0,1-.74-.813,1.182,1.182,0,0,1,.316-1.1c.582-.6,1.183-1.192,1.764-1.769l.551-.547a1.557,1.557,0,0,1,.144-.121l.085-.067.124-.1-.132-.395h-12.093a1.148,1.148,0,0,1-1.222-.963,1.144,1.144,0,0,1,.229-.914,1.155,1.155,0,0,1,.843-.44c.048,0,.1,0,.146,0h12.52l-.368-.392-.089-.1c-.052-.056-.092-.1-.135-.142l-.736-.735c-.532-.531-1.083-1.081-1.619-1.626a1.131,1.131,0,0,1-.282-1.213,1.076,1.076,0,0,1,.909-.764,1.226,1.226,0,0,1,.211-.019,1.045,1.045,0,0,1,.756.323c1.5,1.492,3.271,3.254,5,5.006a1.492,1.492,0,0,1,.24.4c.03.062.06.125.093.188v.481a2.556,2.556,0,0,1-.67.923c-1.41,1.4-2.837,2.828-4.216,4.21l-.342.342A1.236,1.236,0,0,1-114.905,1137.34Z" transform="translate(-136.924 -100.884)" fill="#fff"/>
  </g>
</svg>
