<svg id="notification-alert-svgrepo-com" xmlns="http://www.w3.org/2000/svg" width="28" height="28" viewBox="0 0 28 28">
  <rect id="view-box" width="28" height="28" fill="none"/>
  <path id="Shape" d="M7,19.833V19.25H2.625A2.629,2.629,0,0,1,0,16.625v-.446a2.966,2.966,0,0,1,1.651-2.671,1.455,1.455,0,0,0,.8-1.175l.52-5.728A7.265,7.265,0,0,1,12.388.334a6.39,6.39,0,0,0-.741,1.6,5.593,5.593,0,0,0-1.438-.187A5.483,5.483,0,0,0,4.719,6.767L4.2,12.493a3.2,3.2,0,0,1-1.763,2.581A1.231,1.231,0,0,0,1.75,16.18v.446a.876.876,0,0,0,.875.874H17.792a.876.876,0,0,0,.875-.875v-.446a1.228,1.228,0,0,0-.684-1.106,3.2,3.2,0,0,1-1.766-2.581l-.233-2.543a6.385,6.385,0,0,0,1.78.258l.194,2.126a1.47,1.47,0,0,0,.8,1.172,2.971,2.971,0,0,1,1.654,2.672v.446a2.627,2.627,0,0,1-2.625,2.625h-4.37v.586a3.208,3.208,0,1,1-6.417,0Zm1.75,0a1.458,1.458,0,1,0,2.917,0V19.25H8.75Z" transform="translate(3.792 2.625)" fill="#2a3349"/>
</svg>
