<svg xmlns="http://www.w3.org/2000/svg" width="37.597" height="37.597" viewBox="0 0 37.597 37.597">
  <g id="Group_3016" data-name="Group 3016" transform="translate(35.251 -222.748)">
    <path id="Path_9257" data-name="Path 9257" d="M-16.545,260.345a18.806,18.806,0,0,1-18.706-19,18.811,18.811,0,0,1,19.017-18.6A18.821,18.821,0,0,1,2.346,241.577,18.807,18.807,0,0,1-16.545,260.345Zm-16.021-18.837a16.122,16.122,0,0,0,15.991,16.151A16.117,16.117,0,0,0-.34,241.583a16.117,16.117,0,0,0-16.117-16.148A16.126,16.126,0,0,0-32.565,241.508Z" transform="translate(0 0)" fill="#0b78f9"/>
    <path id="Path_9258" data-name="Path 9258" d="M86.867,328.1H79.631c-1.846,0-3.692.006-5.539,0a1.339,1.339,0,0,1-.282-2.65,2.686,2.686,0,0,1,.543-.03q5.979,0,11.958,0h.545c-.133-.145-.214-.244-.305-.334-1.38-1.35-2.768-2.69-4.138-4.05a1.339,1.339,0,0,1,.579-2.292,1.406,1.406,0,0,1,1.4.46c2.1,2.057,4.174,4.134,6.313,6.147,1.1,1.03,1.081,1.8,0,2.824-2.158,2.032-4.252,4.133-6.376,6.2a1.34,1.34,0,0,1-1.575.317A1.243,1.243,0,0,1,82,333.4a1.958,1.958,0,0,1,.489-.975c1.327-1.343,2.69-2.65,4.04-3.97C86.622,328.366,86.711,328.265,86.867,328.1Z" transform="translate(-95.909 -85.211)" fill="#0b78f9"/>
    <path id="Path_9259" data-name="Path 9259" d="M26.767,378.732c.252,0,.5-.012.755,0a1.339,1.339,0,0,1,0,2.674c-.488.022-.979.021-1.467,0a1.339,1.339,0,0,1,0-2.676C26.291,378.722,26.529,378.732,26.767,378.732Z" transform="translate(-53.299 -138.526)" fill="#0b78f9"/>
  </g>
</svg>
