<svg xmlns="http://www.w3.org/2000/svg" width="29.263" height="29.26" viewBox="0 0 29.263 29.26">
  <g id="Group_3059" data-name="Group 3059" transform="translate(-1482.866 706.493)">
    <path id="Path_9262" data-name="Path 9262" d="M1482.866-679.462v-14.23a.294.294,0,0,0,.041-.072,2.567,2.567,0,0,1,2.671-2.137c1.085,0,2.171-.005,3.256,0a.666.666,0,0,0,.525-.211q4.6-4.611,9.2-9.217a3.564,3.564,0,0,1,1.908-1.167h.686a3.673,3.673,0,0,1,1.942,1.218c1.4,1.427,2.824,2.833,4.238,4.247q1.99,1.99,3.98,3.979a2.328,2.328,0,0,1,.792,1.887,18.3,18.3,0,0,0,.008,1.905c.024,4.457.014,8.914.009,13.371a2.97,2.97,0,0,1-.089.733,2.529,2.529,0,0,1-2.472,1.916q-12.071.008-24.141,0h-.057a2.572,2.572,0,0,1-2.4-1.873Zm14.621.514h11.885c.723,0,1.04-.319,1.04-1.046q0-6.571,0-13.142c0-.74-.316-1.052-1.065-1.052h-23.712c-.744,0-1.054.313-1.054,1.062q0,6.557,0,13.113c0,.76.309,1.064,1.079,1.064Zm-5.89-16.971c.116.008.172.016.228.016,2.8,0,5.6,0,8.4-.007a.621.621,0,0,0,.384-.183q2.221-2.2,4.428-4.419c.06-.06.115-.123.182-.193-.064-.07-.119-.134-.178-.193q-1.757-1.758-3.515-3.514a.892.892,0,0,0-1.454.01l-8.221,8.22C1491.776-696.11,1491.707-696.034,1491.6-695.918Zm14.878-3.473-3.491,3.489c.664,0,1.365.009,2.065-.008a.642.642,0,0,0,.391-.166c.468-.445.918-.91,1.376-1.366.275-.274.554-.544.809-.795Zm1.273,3.5h2.2l-1.095-1.1Z" fill="#fff"/>
    <path id="Path_9263" data-name="Path 9263" d="M1530.644-510.3c-.466,0-.932.007-1.4,0a1.422,1.422,0,0,1-1.488-1.519c0-.713,0-1.427,0-2.14a1.417,1.417,0,0,1,1.444-1.479c.96-.014,1.921-.012,2.882,0a1.41,1.41,0,0,1,1.454,1.464q.011,1.113,0,2.225a1.4,1.4,0,0,1-1.411,1.444c-.494.015-.989,0-1.483,0Zm1.167-3.406h-2.322v1.675h2.322Z" transform="translate(-41.463 -176.459)" fill="#fff"/>
    <path id="Path_9264" data-name="Path 9264" d="M1531.223-401.8v1.669h-3.971V-401.8Z" transform="translate(-40.997 -281.43)" fill="#fff"/>
    <path id="Path_9265" data-name="Path 9265" d="M1608.088-400.236v-1.674h3.962v1.674Z" transform="translate(-115.662 -281.329)" fill="#fff"/>
    <path id="Path_9266" data-name="Path 9266" d="M1692.92-400.138h-3.965v-1.677h3.965Z" transform="translate(-190.355 -281.417)" fill="#fff"/>
    <path id="Path_9267" data-name="Path 9267" d="M1769.775-401.983h3.961v1.687h-3.961Z" transform="translate(-265.005 -281.262)" fill="#fff"/>
  </g>
</svg>
