<svg xmlns="http://www.w3.org/2000/svg" width="28" height="27.945" viewBox="0 0 28 27.945">
  <g id="Group_2991" data-name="Group 2991" transform="translate(-309.748 -466.723)">
    <path id="Path_9209" data-name="Path 9209" d="M332.148,479.764h2.629a2.8,2.8,0,0,1,2.971,2.977q0,4.482,0,8.964a2.8,2.8,0,0,1-2.957,2.962H312.249a2.339,2.339,0,0,1-2.5-2.49q0-11.481,0-22.963a2.338,2.338,0,0,1,2.5-2.492h17.409a2.339,2.339,0,0,1,2.491,2.5q0,5.079,0,10.157ZM324.805,492.8a8.412,8.412,0,0,1-.119-.99q-.013-4.6,0-9.2a2.792,2.792,0,0,1,2.861-2.852c.807,0,1.614,0,2.421,0h.316v-.336q0-5.08,0-10.159c0-.551-.133-.683-.688-.683H312.3c-.551,0-.682.133-.682.689q0,11.425,0,22.851c0,.548.134.679.692.679h12.5Zm1.743-5.6q0,2.285,0,4.569a.942.942,0,0,0,1.028,1.034q3.631,0,7.261,0a.943.943,0,0,0,1.043-1.048q0-4.54,0-9.081a.945.945,0,0,0-1.043-1.048q-3.616,0-7.232,0a.951.951,0,0,0-1.058,1.062Q326.546,484.945,326.548,487.2Z" transform="translate(0 0)" fill="#2a3349"/>
    <path id="Path_9210" data-name="Path 9210" d="M421.524,524.718a.971.971,0,0,1-.579,1.016.918.918,0,0,1-1.283-.769.389.389,0,0,0-.27-.375,2.705,2.705,0,0,1-1.6-2.445.922.922,0,0,1,.889-.991.938.938,0,0,1,.972.914.933.933,0,1,0,.88-.916,2.816,2.816,0,0,1-2.685-2.216,2.787,2.787,0,0,1,1.619-3.131c.078-.037.18-.138.178-.208a.953.953,0,0,1,.961-.963c.534.012.88.4.917,1.031,0,.019.008.038.049.01a10.638,10.638,0,0,1,1.056.8,2.529,2.529,0,0,1,.756,1.806.933.933,0,1,1-1.863.078.933.933,0,1,0-1.864.072.953.953,0,0,0,1,.86,2.8,2.8,0,0,1,2.615,2,2.769,2.769,0,0,1-1.5,3.3Z" transform="translate(-99.636 -44.184)" fill="#2a3349"/>
    <path id="Path_9211" data-name="Path 9211" d="M359.616,671.845c.408-.412.774-.786,1.144-1.154a.936.936,0,1,1,1.315,1.317q-.852.856-1.709,1.706a.942.942,0,0,1-1.477,0c-.276-.273-.553-.545-.823-.823a.931.931,0,1,1,1.307-1.323C359.45,671.641,359.514,671.727,359.616,671.845Z" transform="translate(-44.28 -187.783)" fill="#2a3349"/>
    <path id="Path_9212" data-name="Path 9212" d="M359.6,731.739c.421-.424.787-.8,1.158-1.165a.936.936,0,1,1,1.312,1.321q-.852.856-1.709,1.706a.943.943,0,0,1-1.477,0c-.276-.273-.553-.545-.823-.823a.93.93,0,1,1,1.31-1.32A3.118,3.118,0,0,1,359.6,731.739Z" transform="translate(-44.279 -243.011)" fill="#2a3349"/>
    <path id="Path_9213" data-name="Path 9213" d="M431.636,682.276c.311,0,.622-.007.933,0a.929.929,0,0,1,0,1.858c-.622.01-1.244.009-1.866,0a.93.93,0,1,1,0-1.859C431.014,682.271,431.325,682.276,431.636,682.276Z" transform="translate(-110.68 -198.786)" fill="#2a3349"/>
    <path id="Path_9214" data-name="Path 9214" d="M431.627,743.988c-.311,0-.622.007-.933,0a.933.933,0,0,1-.931-.924.923.923,0,0,1,.919-.934q.947-.017,1.895,0a.928.928,0,0,1,.013,1.856C432.269,744,431.948,743.988,431.627,743.988Z" transform="translate(-110.681 -253.978)" fill="#2a3349"/>
    <path id="Path_9215" data-name="Path 9215" d="M552.564,684.153c-.6,0-1.205,0-1.808,0a.933.933,0,1,1,.009-1.861q1.793,0,3.586,0a.934.934,0,1,1-.009,1.862C553.75,684.155,553.157,684.153,552.564,684.153Z" transform="translate(-221.347 -198.8)" fill="#2a3349"/>
    <path id="Path_9216" data-name="Path 9216" d="M550.7,718.244a.931.931,0,1,1-.941.913A.938.938,0,0,1,550.7,718.244Z" transform="translate(-221.346 -231.958)" fill="#2a3349"/>
    <path id="Path_9217" data-name="Path 9217" d="M599.625,719.178a.932.932,0,1,1-.921-.935A.937.937,0,0,1,599.625,719.178Z" transform="translate(-265.612 -231.958)" fill="#2a3349"/>
    <path id="Path_9218" data-name="Path 9218" d="M550.7,754.174a.931.931,0,1,1-.937.918A.938.938,0,0,1,550.7,754.174Z" transform="translate(-221.347 -265.094)" fill="#2a3349"/>
    <path id="Path_9219" data-name="Path 9219" d="M599.627,755.094a.932.932,0,1,1-.936-.92A.937.937,0,0,1,599.627,755.094Z" transform="translate(-265.614 -265.094)" fill="#2a3349"/>
  </g>
</svg>
