<svg xmlns="http://www.w3.org/2000/svg" width="29.279" height="29.259" viewBox="0 0 29.279 29.259">
  <g id="Group_2995" data-name="Group 2995" transform="translate(-927.331 -425.411)">
    <path id="Path_9222" data-name="Path 9222" d="M930.933,467.714c.879.4,1.7.775,2.514,1.147,2.039.927,4.081,1.848,6.115,2.785a.718.718,0,0,0,.67-.009c1.787-.824,3.583-1.63,5.371-2.451a1.092,1.092,0,0,1,1.117.024.978.978,0,0,1,.477.909,1.01,1.01,0,0,1-.623.923c-.958.441-1.919.875-2.879,1.312-.851.388-1.7.78-2.555,1.159a.291.291,0,0,0-.215.307q.008,5.473.005,10.946a.877.877,0,0,0,.023.125c.692-.312,1.373-.618,2.053-.927q3.519-1.6,7.04-3.195a.422.422,0,0,0,.3-.455c-.015-1.372-.008-2.745-.007-4.117a1.051,1.051,0,1,1,2.09,0c0,1.655-.005,3.311,0,4.967a1.146,1.146,0,0,1-.739,1.151q-5.63,2.552-11.254,5.118a1.271,1.271,0,0,1-1.127-.008q-5.594-2.553-11.2-5.087a1.205,1.205,0,0,1-.786-1.22q.015-6.617,0-13.233a1.185,1.185,0,0,1,.769-1.2q5.617-2.541,11.226-5.1a1.175,1.175,0,0,1,1.036-.033c1.374.63,2.754,1.245,4.126,1.88a1.039,1.039,0,0,1-.515,1.987,1.682,1.682,0,0,1-.494-.154c-1.12-.5-2.236-1.02-3.359-1.519a.58.58,0,0,0-.422-.019q-4.3,1.937-8.584,3.9C931.076,467.637,931.039,467.658,930.933,467.714Zm-1.5,12.916,9.392,4.267V473.6l-9.392-4.266Z" transform="translate(0 -32.887)" fill="#2a3349"/>
    <path id="Path_9223" data-name="Path 9223" d="M1148.248,425.411a5.228,5.228,0,0,1,5.233,5.262,7.465,7.465,0,0,1-.625,2.52,50.4,50.4,0,0,1-3.394,6.862c-.107.189-.21.382-.332.561a1.013,1.013,0,0,1-1.727.011,43.342,43.342,0,0,1-4.144-8.621A5.178,5.178,0,0,1,1148.248,425.411Zm.013,12.521a43.689,43.689,0,0,0,2.751-5.775,5.239,5.239,0,0,0,.364-1.544,3.09,3.09,0,0,0-2.5-3.047,3.158,3.158,0,0,0-3.563,1.984,3.475,3.475,0,0,0,.15,2.541,43.313,43.313,0,0,0,2.486,5.276C1148.04,437.537,1148.135,437.7,1148.261,437.932Z" transform="translate(-196.872 0)" fill="#2a3349"/>
    <path id="Path_9224" data-name="Path 9224" d="M1180.986,461.346a2.09,2.09,0,1,1-2.074,2.114A2.093,2.093,0,0,1,1180.986,461.346Z" transform="translate(-229.616 -32.797)" fill="#2a3349"/>
  </g>
</svg>
