<svg xmlns="http://www.w3.org/2000/svg" width="186.584" height="31.053" viewBox="0 0 186.584 31.053">
  <g id="Nettrux-LOGO" transform="translate(-239.5 -262.892)">
    <g id="Group_2" data-name="Group 2" transform="translate(239.5 262.892)">
      <path id="Path_1" data-name="Path 1" d="M485.2,281.528c0,8.094-4.4,9.031-7.712,9.031-5.261,0-7.711-2.869-7.711-9.031V263.556H466.19v17.972c0,8.106,4.014,12.571,11.3,12.571s11.3-4.465,11.3-12.571V263.556H485.2Z" transform="translate(-331.058 -263.159)" fill="#fff"/>
      <path id="Path_2" data-name="Path 2" d="M437.974,273.444c0-6.505-4.467-10.546-11.656-10.546H406.854l3.551,3.551,15.914-.01c5.125,0,8.064,2.553,8.064,7.005,0,4.287-2.679,6.466-7.963,6.466h-3.255l-4.362.023,13.228,13.7h4.927l-9.687-10.17,1.065-.106C434.461,282.749,437.974,279.135,437.974,273.444Z" transform="translate(-307.093 -262.893)" fill="#fff"/>
      <path id="Path_3" data-name="Path 3" d="M326.283,262.9l2.989,3.581,46.172-.029-3.552-3.552Z" transform="translate(-274.551 -262.894)" fill="#fff"/>
      <path id="Path_4" data-name="Path 4" d="M299.3,266.489l15.4-.009L311.7,262.9H297.827a1.995,1.995,0,0,0-2.123,2.175v26.409h0a1.995,1.995,0,0,0,2.123,2.175l14.789.012,2.564-3.6H299.3Z" transform="translate(-262.199 -262.892)" fill="#fff"/>
      <path id="Path_5" data-name="Path 5" d="M346.965,272.069v25.443l4.055-3.563-.012-21.88Z" transform="translate(-282.904 -266.598)" fill="#fff"/>
      <path id="Path_6" data-name="Path 6" d="M386.491,272.069l-.006,25.443,4.055-3.563-.006-21.88Z" transform="translate(-298.866 -266.598)" fill="#fff"/>
      <path id="Path_7" data-name="Path 7" d="M412.79,268.9l-.006,27.468,4.055-3.563-.006-19.741Z" transform="translate(-309.488 -265.319)" fill="#fff"/>
      <path id="Path_8" data-name="Path 8" d="M524.787,277.348l8.8-13.792h-4.492l-6.479,10.388-6.628-10.388h-4.5l8.909,13.955L510.13,293.965h4.055l8.353-13.091,8.358,13.091h4.492Z" transform="translate(-348.804 -263.159)" fill="#fff"/>
      <path id="Path_9" data-name="Path 9" d="M315.35,288.794V285.3h-10.6L307,288.794Z" transform="translate(-265.855 -271.941)" fill="#fff"/>
      <path id="Path_10" data-name="Path 10" d="M264.305,262.9h-3.592v25.267L243.851,262.9H239.5v30.739h3.592V268.281l16.922,25.356h4.352l-.06-.089Z" transform="translate(-239.5 -262.894)" fill="#fff"/>
    </g>
    <g id="Group_3" data-name="Group 3" transform="translate(239.5 262.892)">
      <path id="Path_11" data-name="Path 11" d="M485.2,281.528c0,8.094-4.4,9.031-7.712,9.031-5.261,0-7.711-2.869-7.711-9.031V263.556H466.19v17.972c0,8.106,4.014,12.571,11.3,12.571s11.3-4.465,11.3-12.571V263.556H485.2Z" transform="translate(-331.058 -263.159)" fill="#fff"/>
      <path id="Path_12" data-name="Path 12" d="M437.974,273.444c0-6.505-4.467-10.546-11.656-10.546H406.854l3.551,3.551,15.914-.01c5.125,0,8.064,2.553,8.064,7.005,0,4.287-2.679,6.466-7.963,6.466h-3.255l-4.362.023,13.228,13.7h4.927l-9.687-10.17,1.065-.106C434.461,282.749,437.974,279.135,437.974,273.444Z" transform="translate(-307.093 -262.893)" fill="#fff"/>
      <path id="Path_13" data-name="Path 13" d="M326.283,262.9l2.989,3.581,46.172-.029-3.552-3.552Z" transform="translate(-274.551 -262.894)" fill="#fff"/>
      <path id="Path_14" data-name="Path 14" d="M299.3,266.489l15.4-.009L311.7,262.9H297.827a1.995,1.995,0,0,0-2.123,2.175v26.409h0a1.995,1.995,0,0,0,2.123,2.175l14.789.012,2.564-3.6H299.3Z" transform="translate(-262.199 -262.892)" fill="#fff"/>
      <path id="Path_15" data-name="Path 15" d="M346.965,272.069v25.443l4.055-3.563-.012-21.88Z" transform="translate(-282.904 -266.598)" fill="#fff"/>
      <path id="Path_16" data-name="Path 16" d="M386.491,272.069l-.006,25.443,4.055-3.563-.006-21.88Z" transform="translate(-298.866 -266.598)" fill="#fff"/>
      <path id="Path_17" data-name="Path 17" d="M412.79,268.9l-.006,27.468,4.055-3.563-.006-19.741Z" transform="translate(-309.488 -265.319)" fill="#fff"/>
      <path id="Path_18" data-name="Path 18" d="M524.787,277.348l8.8-13.792h-4.492l-6.479,10.388-6.628-10.388h-4.5l8.909,13.955L510.13,293.965h4.055l8.353-13.091,8.358,13.091h4.492Z" transform="translate(-348.804 -263.159)" fill="#fff"/>
      <path id="Path_19" data-name="Path 19" d="M315.35,288.794V285.3h-10.6L307,288.794Z" transform="translate(-265.855 -271.941)" fill="#fff"/>
      <path id="Path_20" data-name="Path 20" d="M264.305,262.9h-3.592v25.267L243.851,262.9H239.5v30.739h3.592V268.281l16.922,25.356h4.352l-.06-.089Z" transform="translate(-239.5 -262.894)" fill="#fff"/>
    </g>
  </g>
</svg>
